IKResults
version=1
nRows=33
nColumns=24
inDegrees=yes

Units are S.I. units (second, meters, Newtons, ...)
If the header above contains a line with 'inDegrees', this indicates whether rotational values are in degrees (yes) or radians (no).

endheader
time	pelvis_tilt	pelvis_list	pelvis_rotation	pelvis_tx	pelvis_ty	pelvis_tz	hip_flexion_r	hip_adduction_r	hip_rotation_r	knee_angle_r	ankle_angle_r	subtalar_angle_r	mtp_angle_r	hip_flexion_l	hip_adduction_l	hip_rotation_l	knee_angle_l	ankle_angle_l	subtalar_angle_l	mtp_angle_l	lumbar_extension	lumbar_bending	lumbar_rotation
4.610000	12.926583	2.247629	-179.144317	0.306921	0.582922	-1.210996	70.828748	-31.790668	-16.310671	-98.099063	34.008956	7.231219	0.000000	74.942902	-34.101116	-8.143377	-97.596228	34.385266	17.578486	0.000000	-15.603496	1.921363	2.169638
4.615000	12.942487	2.240162	-179.119593	0.307481	0.577491	-1.210827	71.622357	-32.104457	-15.975626	-99.137095	34.358038	7.374221	0.000000	75.778027	-34.185669	-7.667180	-98.205006	34.393562	17.565160	0.000000	-15.706362	1.952451	2.144336
4.620000	12.913388	2.218949	-179.113297	0.307871	0.572197	-1.210727	72.357374	-32.388709	-15.611531	-100.142375	34.768587	7.578169	0.000000	76.725341	-34.355613	-6.852423	-99.363842	34.510752	18.401700	0.000000	-15.848626	1.962352	2.130006
4.625000	12.912154	2.262372	-179.106738	0.308317	0.566918	-1.210721	73.060758	-32.623741	-15.331132	-101.118198	35.087867	7.772865	0.000000	77.377082	-34.529816	-6.813832	-100.177210	35.079685	17.925626	0.000000	-15.962453	2.033978	2.135165
4.630000	12.852322	2.233535	-179.067411	0.308626	0.561744	-1.210648	73.744678	-32.913785	-14.965958	-102.108267	35.447562	7.783487	0.000000	78.129697	-34.666232	-6.394248	-101.227642	35.399660	18.118969	0.000000	-16.123574	2.028731	2.097518
4.635000	12.832669	2.246524	-179.056325	0.308950	0.556631	-1.210547	74.454980	-33.152590	-14.636226	-103.071304	35.780544	8.017011	0.000000	78.888285	-34.812468	-5.969330	-102.088464	35.704602	18.244137	0.000000	-16.235766	2.050263	2.131122
4.640000	12.751558	2.236375	-179.026617	0.309117	0.551550	-1.210447	75.107625	-33.420762	-14.276755	-104.052510	36.117118	8.154492	0.000000	79.606656	-34.966653	-5.569956	-103.135331	36.044068	18.401063	0.000000	-16.399376	2.068203	2.104821
4.645000	12.676410	2.204102	-178.998075	0.309388	0.546571	-1.210438	75.766521	-33.669423	-13.886188	-104.997875	36.444926	8.135401	0.000000	80.285031	-35.101144	-5.230322	-104.135031	36.416037	18.534421	0.000000	-16.572258	2.039542	2.105818
4.650000	12.627205	2.161684	-178.972765	0.309585	0.541611	-1.210309	76.453389	-33.916663	-13.470663	-105.909464	36.743063	8.251860	0.000000	80.958754	-35.213734	-4.879160	-105.053273	36.709185	18.699309	0.000000	-16.698985	2.010232	2.120990
4.655000	12.582552	2.129274	-178.914978	0.309807	0.536674	-1.210175	77.126148	-34.178979	-13.077580	-106.834865	37.078991	8.480859	0.000000	81.663457	-35.292828	-4.500876	-105.961916	36.977253	18.851234	0.000000	-16.829912	2.014196	2.063304
4.660000	12.608529	2.144204	-179.195561	0.309837	0.531868	-1.209727	77.900525	-34.140639	-12.609956	-107.643909	37.293701	8.528305	0.000000	82.416508	-35.816753	-4.244615	-106.960809	37.237795	19.175437	0.000000	-16.874257	2.106103	2.311352
4.665000	12.589562	2.177561	-179.126519	0.310088	0.527101	-1.209713	78.556355	-34.362737	-12.296096	-108.525422	37.563743	8.545247	0.000000	83.084863	-35.758600	-3.740747	-107.732273	37.641488	19.103323	0.000000	-16.970173	2.154821	2.296699
4.670000	12.551189	2.200930	-179.146663	0.309982	0.522596	-1.209418	79.152449	-34.536704	-11.945279	-109.339713	37.819791	8.654369	0.000000	83.798822	-35.882327	-3.284623	-108.614030	37.849453	19.173280	0.000000	-16.853108	1.625203	3.914414
4.675000	12.401573	2.103461	-179.116903	0.310271	0.517799	-1.209681	79.813077	-34.721080	-11.432567	-110.261558	38.065221	8.886902	0.000000	84.376885	-36.055247	-2.974141	-109.473432	38.036762	19.490839	0.000000	-17.311265	2.104609	2.317834
4.680000	12.389664	2.143610	-179.106834	0.310166	0.513470	-1.209414	80.380839	-34.901518	-11.128227	-111.013558	38.298005	9.029915	0.000000	85.023689	-36.092859	-2.523286	-110.248664	38.360135	19.517961	0.000000	-17.163852	1.612361	3.851366
4.685000	12.206718	2.066086	-179.066458	0.310378	0.508817	-1.209608	80.978653	-35.069789	-10.626426	-111.906656	38.571562	9.022085	0.000000	85.534839	-36.179710	-2.166899	-111.065009	38.612341	19.648308	0.000000	-17.634659	2.097515	2.318406
4.690000	12.189633	2.095461	-179.096810	0.310219	0.504585	-1.209353	81.560313	-35.208457	-10.291382	-112.648113	38.794729	9.226796	0.000000	86.188346	-36.312529	-1.757364	-111.851909	38.846900	19.779222	0.000000	-17.489463	1.597281	3.875177
4.695000	12.083918	2.096245	-179.096184	0.310227	0.500230	-1.209313	82.115616	-35.344101	-9.912235	-113.450638	39.040175	9.277210	0.000000	86.775512	-36.410525	-1.336855	-112.633533	39.125709	19.871953	0.000000	-17.653597	1.621017	3.905035
4.700000	11.929049	2.038477	-179.121985	0.310409	0.495787	-1.209542	82.709460	-35.423038	-9.440180	-114.281432	39.266804	9.256161	0.000000	87.309751	-36.545741	-0.950602	-113.415603	39.330896	20.011617	0.000000	-18.095178	2.065603	2.522665
4.705000	11.817295	1.980231	-179.121817	0.310428	0.491565	-1.209528	83.289372	-35.557303	-8.978821	-115.047919	39.480884	9.359687	0.000000	87.823923	-36.637547	-0.619213	-114.162537	39.539215	20.184701	0.000000	-18.263440	2.058098	2.459432
4.710000	11.713650	1.962284	-179.132491	0.310411	0.487439	-1.209573	83.829925	-35.645094	-8.566234	-115.789597	39.699714	9.434652	0.000000	88.367889	-36.739749	-0.231707	-114.893320	39.751525	20.273720	0.000000	-18.415589	2.051129	2.504041
4.715000	11.689110	2.067674	-179.175646	0.310131	0.483524	-1.209350	84.295099	-35.713092	-8.331945	-116.455513	39.872189	9.562548	0.000000	88.999113	-36.902197	0.241300	-115.772534	40.173968	20.486740	0.000000	-18.260275	1.621109	4.103832
4.720000	11.484413	2.017359	-179.160978	0.310199	0.479374	-1.209514	84.797065	-35.815719	-7.882783	-117.241445	40.088657	9.537181	0.000000	89.497285	-36.949906	0.680065	-116.340164	40.147371	20.548986	0.000000	-18.731451	2.126876	2.641316
4.725000	11.385148	2.037814	-179.174754	0.310095	0.475462	-1.209545	85.285747	-35.884099	-7.526707	-117.945316	40.284585	9.664279	0.000000	90.000479	-37.070289	1.063048	-117.187288	40.560399	20.683892	0.000000	-18.863853	2.129305	2.785395
4.730000	11.244925	2.033306	-179.155134	0.310025	0.471660	-1.209544	85.732105	-35.976597	-7.150045	-118.632494	40.499810	9.660698	0.000000	90.494342	-37.119051	1.459847	-117.833278	40.742866	20.763045	0.000000	-19.048782	2.186106	2.701636
4.735000	11.143463	2.035285	-179.146337	0.309980	0.467872	-1.209574	86.201302	-36.044750	-6.783089	-119.292446	40.708270	9.685786	0.000000	91.018684	-37.171982	1.868454	-118.475021	40.911870	20.861633	0.000000	-19.194227	2.218993	2.709528
4.740000	11.039124	2.011085	-179.121528	0.309877	0.464082	-1.209509	86.703701	-36.140741	-6.361376	-119.962831	40.847145	9.771029	0.000000	91.513242	-37.204971	2.235777	-119.133015	41.086919	20.995551	0.000000	-19.324825	2.221709	2.735373
4.745000	10.896623	2.010736	-179.118415	0.309715	0.460469	-1.209435	87.127194	-36.206147	-5.986891	-120.621035	41.030058	9.777647	0.000000	91.974344	-37.266631	2.631105	-119.785609	41.264667	21.110801	0.000000	-19.493615	2.250243	2.729701
4.750000	10.775342	2.014693	-179.105895	0.309570	0.456877	-1.209363	87.573375	-36.275973	-5.618030	-121.272440	41.179197	9.779377	0.000000	92.450948	-37.295649	3.039977	-120.419505	41.432943	21.191049	0.000000	-19.632212	2.272146	2.766010
4.755000	10.664968	2.006985	-179.093898	0.309414	0.453354	-1.209356	88.015379	-36.332275	-5.248087	-121.896778	41.374019	9.737421	0.000000	92.921259	-37.348691	3.412391	-121.029511	41.597879	21.278140	0.000000	-19.763837	2.256575	2.798902
4.760000	10.554487	2.001040	-179.041610	0.309295	0.449916	-1.209345	88.432794	-36.418431	-4.884143	-122.492132	41.505349	9.802382	0.000000	93.374300	-37.330567	3.795279	-121.606392	41.723307	21.411728	0.000000	-19.889517	2.265228	2.806978
4.765000	10.429101	1.962946	-178.970958	0.309182	0.446542	-1.209375	88.855779	-36.506129	-4.469740	-123.085074	41.699591	9.829787	0.000000	93.782251	-37.296523	4.128375	-122.171093	41.852579	21.538060	0.000000	-20.032080	2.244352	2.733638
4.770000	10.294689	1.943004	-178.943567	0.309064	0.443301	-1.209459	89.254572	-36.551088	-4.099333	-123.671449	41.838192	9.860360	0.000000	94.185328	-37.307109	4.489377	-122.720369	41.995760	21.629371	0.000000	-20.181833	2.245599	2.686664
